<mxfile host="app.diagrams.net" modified="2023-05-29T15:48:59.996Z" agent="Mozilla/5.0 (Macintosh; Intel Mac OS X 10_15_7) AppleWebKit/537.36 (KHTML, like Gecko) Chrome/113.0.0.0 Safari/537.36" etag="td91F5-AhN-ycwKqbL4Z" version="21.3.0" type="device">
  <diagram name="Page-1" id="hS9GXbGHF9m6f4fMAM9V">
    <mxGraphModel dx="4181" dy="1779" grid="1" gridSize="10" guides="1" tooltips="1" connect="1" arrows="1" fold="1" page="1" pageScale="1" pageWidth="827" pageHeight="1169" math="0" shadow="0">
      <root>
        <mxCell id="0" />
        <mxCell id="1" parent="0" />
        <mxCell id="VTR4LVU4mm7xho-qgtD3-2" value="" style="edgeStyle=orthogonalEdgeStyle;rounded=0;orthogonalLoop=1;jettySize=auto;html=1;" parent="1" source="VTR4LVU4mm7xho-qgtD3-3" target="VTR4LVU4mm7xho-qgtD3-4" edge="1">
          <mxGeometry relative="1" as="geometry" />
        </mxCell>
        <mxCell id="VTR4LVU4mm7xho-qgtD3-3" value="Display Main Menu." style="shape=parallelogram;perimeter=parallelogramPerimeter;whiteSpace=wrap;html=1;fixedSize=1;rounded=0;" parent="1" vertex="1">
          <mxGeometry x="138.13" y="80" width="142.5" height="30" as="geometry" />
        </mxCell>
        <mxCell id="Qqf6VQFHV5nOcDdPNc0d-46" style="edgeStyle=orthogonalEdgeStyle;rounded=0;orthogonalLoop=1;jettySize=auto;html=1;exitX=0.5;exitY=1;exitDx=0;exitDy=0;entryX=0.5;entryY=0;entryDx=0;entryDy=0;" edge="1" parent="1" source="VTR4LVU4mm7xho-qgtD3-4" target="VTR4LVU4mm7xho-qgtD3-9">
          <mxGeometry relative="1" as="geometry" />
        </mxCell>
        <mxCell id="Qqf6VQFHV5nOcDdPNc0d-47" style="edgeStyle=orthogonalEdgeStyle;rounded=0;orthogonalLoop=1;jettySize=auto;html=1;exitX=0.5;exitY=1;exitDx=0;exitDy=0;" edge="1" parent="1" source="VTR4LVU4mm7xho-qgtD3-4" target="VTR4LVU4mm7xho-qgtD3-10">
          <mxGeometry relative="1" as="geometry" />
        </mxCell>
        <mxCell id="Qqf6VQFHV5nOcDdPNc0d-48" style="edgeStyle=orthogonalEdgeStyle;rounded=0;orthogonalLoop=1;jettySize=auto;html=1;exitX=0.5;exitY=1;exitDx=0;exitDy=0;" edge="1" parent="1" source="VTR4LVU4mm7xho-qgtD3-4" target="VTR4LVU4mm7xho-qgtD3-11">
          <mxGeometry relative="1" as="geometry" />
        </mxCell>
        <mxCell id="Qqf6VQFHV5nOcDdPNc0d-51" style="edgeStyle=orthogonalEdgeStyle;rounded=0;orthogonalLoop=1;jettySize=auto;html=1;exitX=0.5;exitY=1;exitDx=0;exitDy=0;" edge="1" parent="1" source="VTR4LVU4mm7xho-qgtD3-4" target="VTR4LVU4mm7xho-qgtD3-12">
          <mxGeometry relative="1" as="geometry" />
        </mxCell>
        <mxCell id="Qqf6VQFHV5nOcDdPNc0d-52" style="edgeStyle=orthogonalEdgeStyle;rounded=0;orthogonalLoop=1;jettySize=auto;html=1;exitX=0.5;exitY=1;exitDx=0;exitDy=0;" edge="1" parent="1" source="VTR4LVU4mm7xho-qgtD3-4" target="VTR4LVU4mm7xho-qgtD3-13">
          <mxGeometry relative="1" as="geometry" />
        </mxCell>
        <mxCell id="Qqf6VQFHV5nOcDdPNc0d-53" style="edgeStyle=orthogonalEdgeStyle;rounded=0;orthogonalLoop=1;jettySize=auto;html=1;exitX=0.5;exitY=1;exitDx=0;exitDy=0;" edge="1" parent="1" source="VTR4LVU4mm7xho-qgtD3-4" target="VTR4LVU4mm7xho-qgtD3-211">
          <mxGeometry relative="1" as="geometry" />
        </mxCell>
        <mxCell id="Qqf6VQFHV5nOcDdPNc0d-54" style="edgeStyle=orthogonalEdgeStyle;rounded=0;orthogonalLoop=1;jettySize=auto;html=1;exitX=0.5;exitY=1;exitDx=0;exitDy=0;" edge="1" parent="1" source="VTR4LVU4mm7xho-qgtD3-4" target="VTR4LVU4mm7xho-qgtD3-241">
          <mxGeometry relative="1" as="geometry" />
        </mxCell>
        <mxCell id="VTR4LVU4mm7xho-qgtD3-4" value="Enter User Choice:" style="shape=parallelogram;perimeter=parallelogramPerimeter;whiteSpace=wrap;html=1;fixedSize=1;rounded=0;" parent="1" vertex="1">
          <mxGeometry x="100.00000000000001" y="140" width="217.19" height="40" as="geometry" />
        </mxCell>
        <mxCell id="VTR4LVU4mm7xho-qgtD3-8" value="" style="edgeStyle=orthogonalEdgeStyle;rounded=0;orthogonalLoop=1;jettySize=auto;html=1;" parent="1" source="VTR4LVU4mm7xho-qgtD3-9" target="VTR4LVU4mm7xho-qgtD3-17" edge="1">
          <mxGeometry relative="1" as="geometry" />
        </mxCell>
        <mxCell id="VTR4LVU4mm7xho-qgtD3-9" value="&lt;b&gt;Choice 1: Vacancy&lt;/b&gt;" style="whiteSpace=wrap;html=1;fillColor=#dae8fc;strokeColor=#6c8ebf;gradientColor=#7ea6e0;rounded=0;" parent="1" vertex="1">
          <mxGeometry x="-655.01" y="241.75" width="90" height="40" as="geometry" />
        </mxCell>
        <mxCell id="Qqf6VQFHV5nOcDdPNc0d-26" value="" style="edgeStyle=orthogonalEdgeStyle;rounded=0;orthogonalLoop=1;jettySize=auto;html=1;" edge="1" parent="1" source="VTR4LVU4mm7xho-qgtD3-10" target="VTR4LVU4mm7xho-qgtD3-47">
          <mxGeometry relative="1" as="geometry" />
        </mxCell>
        <mxCell id="VTR4LVU4mm7xho-qgtD3-10" value="&lt;b&gt;Choice 2: Reservation&lt;/b&gt;" style="whiteSpace=wrap;html=1;fillColor=#dae8fc;strokeColor=#6c8ebf;gradientColor=#7ea6e0;rounded=0;" parent="1" vertex="1">
          <mxGeometry x="-264.19" y="241.75" width="90" height="40" as="geometry" />
        </mxCell>
        <mxCell id="VTR4LVU4mm7xho-qgtD3-78" value="" style="edgeStyle=orthogonalEdgeStyle;rounded=0;orthogonalLoop=1;jettySize=auto;html=1;" parent="1" source="VTR4LVU4mm7xho-qgtD3-11" target="VTR4LVU4mm7xho-qgtD3-74" edge="1">
          <mxGeometry relative="1" as="geometry" />
        </mxCell>
        <mxCell id="VTR4LVU4mm7xho-qgtD3-11" value="&lt;b&gt;Choice 3: Confirm Reservation&lt;/b&gt;" style="whiteSpace=wrap;html=1;fillColor=#dae8fc;strokeColor=#6c8ebf;gradientColor=#7ea6e0;rounded=0;" parent="1" vertex="1">
          <mxGeometry x="162.75" y="236.5" width="90" height="40" as="geometry" />
        </mxCell>
        <mxCell id="VTR4LVU4mm7xho-qgtD3-119" value="" style="edgeStyle=orthogonalEdgeStyle;rounded=0;orthogonalLoop=1;jettySize=auto;html=1;" parent="1" source="VTR4LVU4mm7xho-qgtD3-12" target="VTR4LVU4mm7xho-qgtD3-117" edge="1">
          <mxGeometry relative="1" as="geometry" />
        </mxCell>
        <mxCell id="VTR4LVU4mm7xho-qgtD3-12" value="&lt;b&gt;Choice 4: Check-In&lt;/b&gt;" style="whiteSpace=wrap;html=1;fillColor=#dae8fc;strokeColor=#6c8ebf;gradientColor=#7ea6e0;rounded=0;" parent="1" vertex="1">
          <mxGeometry x="480" y="241.75" width="90" height="40" as="geometry" />
        </mxCell>
        <mxCell id="VTR4LVU4mm7xho-qgtD3-151" value="" style="edgeStyle=orthogonalEdgeStyle;rounded=0;orthogonalLoop=1;jettySize=auto;html=1;" parent="1" source="VTR4LVU4mm7xho-qgtD3-13" target="VTR4LVU4mm7xho-qgtD3-147" edge="1">
          <mxGeometry relative="1" as="geometry" />
        </mxCell>
        <mxCell id="VTR4LVU4mm7xho-qgtD3-13" value="&lt;b&gt;Choice 5:&lt;br&gt;Check-Out&lt;/b&gt;" style="whiteSpace=wrap;html=1;fillColor=#dae8fc;strokeColor=#6c8ebf;gradientColor=#7ea6e0;rounded=0;" parent="1" vertex="1">
          <mxGeometry x="785.75" y="241.75" width="90" height="40" as="geometry" />
        </mxCell>
        <mxCell id="VTR4LVU4mm7xho-qgtD3-16" value="" style="edgeStyle=orthogonalEdgeStyle;rounded=0;orthogonalLoop=1;jettySize=auto;html=1;" parent="1" source="VTR4LVU4mm7xho-qgtD3-17" edge="1">
          <mxGeometry relative="1" as="geometry">
            <mxPoint x="-610.01" y="383.75" as="targetPoint" />
          </mxGeometry>
        </mxCell>
        <mxCell id="VTR4LVU4mm7xho-qgtD3-17" value="List all vacant rooms:" style="shape=parallelogram;perimeter=parallelogramPerimeter;whiteSpace=wrap;html=1;fixedSize=1;rounded=0;" parent="1" vertex="1">
          <mxGeometry x="-662.51" y="311.75" width="105" height="40" as="geometry" />
        </mxCell>
        <mxCell id="VTR4LVU4mm7xho-qgtD3-260" value="" style="edgeStyle=orthogonalEdgeStyle;rounded=0;orthogonalLoop=1;jettySize=auto;html=1;" parent="1" source="VTR4LVU4mm7xho-qgtD3-21" target="VTR4LVU4mm7xho-qgtD3-3" edge="1">
          <mxGeometry relative="1" as="geometry" />
        </mxCell>
        <mxCell id="VTR4LVU4mm7xho-qgtD3-21" value="&lt;b&gt;Start-BEST-IN Hotel&amp;nbsp;&lt;/b&gt;" style="ellipse;whiteSpace=wrap;html=1;fillColor=#d5e8d4;strokeColor=#82b366;rounded=0;gradientColor=#97d077;" parent="1" vertex="1">
          <mxGeometry x="154.38" width="110" height="50" as="geometry" />
        </mxCell>
        <mxCell id="VTR4LVU4mm7xho-qgtD3-26" value="" style="edgeStyle=orthogonalEdgeStyle;rounded=0;orthogonalLoop=1;jettySize=auto;html=1;" parent="1" target="VTR4LVU4mm7xho-qgtD3-28" edge="1">
          <mxGeometry relative="1" as="geometry">
            <mxPoint x="-610.01" y="351.75" as="sourcePoint" />
          </mxGeometry>
        </mxCell>
        <mxCell id="VTR4LVU4mm7xho-qgtD3-27" value="" style="edgeStyle=orthogonalEdgeStyle;rounded=0;orthogonalLoop=1;jettySize=auto;html=1;" parent="1" source="VTR4LVU4mm7xho-qgtD3-28" target="VTR4LVU4mm7xho-qgtD3-32" edge="1">
          <mxGeometry relative="1" as="geometry" />
        </mxCell>
        <mxCell id="VTR4LVU4mm7xho-qgtD3-28" value="Room[i] should be =0" style="whiteSpace=wrap;html=1;rounded=0;" parent="1" vertex="1">
          <mxGeometry x="-650.01" y="383.63" width="80" height="40" as="geometry" />
        </mxCell>
        <mxCell id="VTR4LVU4mm7xho-qgtD3-192" value="" style="edgeStyle=orthogonalEdgeStyle;rounded=0;orthogonalLoop=1;jettySize=auto;html=1;" parent="1" source="VTR4LVU4mm7xho-qgtD3-30" target="VTR4LVU4mm7xho-qgtD3-191" edge="1">
          <mxGeometry relative="1" as="geometry" />
        </mxCell>
        <mxCell id="VTR4LVU4mm7xho-qgtD3-30" value="&quot;Room is Vacant&quot;." style="shape=parallelogram;perimeter=parallelogramPerimeter;whiteSpace=wrap;html=1;fixedSize=1;rounded=0;" parent="1" vertex="1">
          <mxGeometry x="-672.51" y="509.25" width="125" height="40" as="geometry" />
        </mxCell>
        <mxCell id="VTR4LVU4mm7xho-qgtD3-31" value="" style="edgeStyle=orthogonalEdgeStyle;rounded=0;orthogonalLoop=1;jettySize=auto;html=1;" parent="1" source="VTR4LVU4mm7xho-qgtD3-32" target="VTR4LVU4mm7xho-qgtD3-30" edge="1">
          <mxGeometry relative="1" as="geometry" />
        </mxCell>
        <mxCell id="VTR4LVU4mm7xho-qgtD3-32" value="user input:" style="shape=parallelogram;perimeter=parallelogramPerimeter;whiteSpace=wrap;html=1;fixedSize=1;" parent="1" vertex="1">
          <mxGeometry x="-656.26" y="450.51" width="92.5" height="27.5" as="geometry" />
        </mxCell>
        <mxCell id="Qqf6VQFHV5nOcDdPNc0d-35" style="edgeStyle=orthogonalEdgeStyle;rounded=0;orthogonalLoop=1;jettySize=auto;html=1;exitX=1;exitY=0.5;exitDx=0;exitDy=0;entryX=0;entryY=0.25;entryDx=0;entryDy=0;" edge="1" parent="1" source="VTR4LVU4mm7xho-qgtD3-33" target="VTR4LVU4mm7xho-qgtD3-10">
          <mxGeometry relative="1" as="geometry">
            <Array as="points">
              <mxPoint x="-457" y="953.25" />
              <mxPoint x="-457" y="252.25" />
            </Array>
          </mxGeometry>
        </mxCell>
        <mxCell id="VTR4LVU4mm7xho-qgtD3-33" value="&lt;meta charset=&quot;utf-8&quot;&gt;&lt;span style=&quot;color: rgb(0, 0, 0); font-family: Helvetica; font-size: 12px; font-style: normal; font-variant-ligatures: normal; font-variant-caps: normal; font-weight: 400; letter-spacing: normal; orphans: 2; text-align: center; text-indent: 0px; text-transform: none; widows: 2; word-spacing: 0px; -webkit-text-stroke-width: 0px; background-color: rgb(251, 251, 251); text-decoration-thickness: initial; text-decoration-style: initial; text-decoration-color: initial; float: none; display: inline !important;&quot;&gt;Enter room id:&lt;/span&gt;&lt;br style=&quot;border-color: var(--border-color); color: rgb(0, 0, 0); font-family: Helvetica; font-size: 12px; font-style: normal; font-variant-ligatures: normal; font-variant-caps: normal; font-weight: 400; letter-spacing: normal; orphans: 2; text-align: center; text-indent: 0px; text-transform: none; widows: 2; word-spacing: 0px; -webkit-text-stroke-width: 0px; background-color: rgb(251, 251, 251); text-decoration-thickness: initial; text-decoration-style: initial; text-decoration-color: initial;&quot;&gt;&lt;span style=&quot;color: rgb(0, 0, 0); font-family: Helvetica; font-size: 12px; font-style: normal; font-variant-ligatures: normal; font-variant-caps: normal; font-weight: 400; letter-spacing: normal; orphans: 2; text-align: center; text-indent: 0px; text-transform: none; widows: 2; word-spacing: 0px; -webkit-text-stroke-width: 0px; background-color: rgb(251, 251, 251); text-decoration-thickness: initial; text-decoration-style: initial; text-decoration-color: initial; float: none; display: inline !important;&quot;&gt;Enter customer name :&lt;/span&gt;" style="shape=parallelogram;perimeter=parallelogramPerimeter;whiteSpace=wrap;html=1;fixedSize=1;rounded=0;" parent="1" vertex="1">
          <mxGeometry x="-672.51" y="931.76" width="150.01" height="53.75" as="geometry" />
        </mxCell>
        <mxCell id="Qqf6VQFHV5nOcDdPNc0d-21" style="edgeStyle=orthogonalEdgeStyle;rounded=0;orthogonalLoop=1;jettySize=auto;html=1;exitX=0.5;exitY=1;exitDx=0;exitDy=0;" edge="1" parent="1" source="VTR4LVU4mm7xho-qgtD3-34" target="VTR4LVU4mm7xho-qgtD3-180">
          <mxGeometry relative="1" as="geometry">
            <Array as="points">
              <mxPoint x="-767" y="1030" />
              <mxPoint x="125" y="1030" />
            </Array>
          </mxGeometry>
        </mxCell>
        <mxCell id="VTR4LVU4mm7xho-qgtD3-34" value="Error message:&lt;br&gt;&quot;this room is not vacant&quot;" style="shape=parallelogram;perimeter=parallelogramPerimeter;whiteSpace=wrap;html=1;fixedSize=1;rounded=0;" parent="1" vertex="1">
          <mxGeometry x="-805.015" y="928.63" width="120" height="60" as="geometry" />
        </mxCell>
        <mxCell id="VTR4LVU4mm7xho-qgtD3-41" value="" style="edgeStyle=orthogonalEdgeStyle;rounded=0;orthogonalLoop=1;jettySize=auto;html=1;entryX=0.5;entryY=0;entryDx=0;entryDy=0;" parent="1" target="VTR4LVU4mm7xho-qgtD3-33" edge="1">
          <mxGeometry relative="1" as="geometry">
            <mxPoint x="-610.0050000000001" y="874.74" as="sourcePoint" />
          </mxGeometry>
        </mxCell>
        <mxCell id="VTR4LVU4mm7xho-qgtD3-44" value="YES" style="edgeLabel;html=1;align=center;verticalAlign=middle;resizable=0;points=[];" parent="VTR4LVU4mm7xho-qgtD3-41" vertex="1" connectable="0">
          <mxGeometry x="-0.1819" y="-1" relative="1" as="geometry">
            <mxPoint as="offset" />
          </mxGeometry>
        </mxCell>
        <mxCell id="VTR4LVU4mm7xho-qgtD3-42" value="" style="edgeStyle=orthogonalEdgeStyle;rounded=0;orthogonalLoop=1;jettySize=auto;html=1;" parent="1" edge="1">
          <mxGeometry relative="1" as="geometry">
            <mxPoint x="-748.91597279597" y="775.55" as="sourcePoint" />
            <mxPoint x="-769" y="934.5" as="targetPoint" />
            <Array as="points">
              <mxPoint x="-769" y="775.5" />
            </Array>
          </mxGeometry>
        </mxCell>
        <mxCell id="VTR4LVU4mm7xho-qgtD3-43" value="NO" style="edgeLabel;html=1;align=center;verticalAlign=middle;resizable=0;points=[];" parent="VTR4LVU4mm7xho-qgtD3-42" vertex="1" connectable="0">
          <mxGeometry x="-0.0982" y="-1" relative="1" as="geometry">
            <mxPoint as="offset" />
          </mxGeometry>
        </mxCell>
        <mxCell id="VTR4LVU4mm7xho-qgtD3-35" value="If R[i] =0, and ResrvROOM_ID[i] =0,&lt;br style=&quot;border-color: var(--border-color);&quot;&gt;and&amp;nbsp;&lt;br style=&quot;border-color: var(--border-color);&quot;&gt;CUST_NAME[i]=&quot;&quot; .&amp;nbsp;&lt;br&gt;ELSE Room[i] =0,&amp;nbsp; and ROOM_ID[i] =1,&lt;br style=&quot;border-color: var(--border-color);&quot;&gt;and&amp;nbsp;&lt;br style=&quot;border-color: var(--border-color);&quot;&gt;CUST_NAME[i]=&quot;customer name&quot; .&amp;nbsp;&lt;br&gt;&amp;nbsp;&lt;br style=&quot;border-color: var(--border-color);&quot;&gt;&amp;nbsp;" style="rhombus;whiteSpace=wrap;html=1;rounded=0;fillColor=#f5f5f5;strokeColor=#666666;gradientColor=#b3b3b3;" parent="1" vertex="1">
          <mxGeometry x="-747" y="670.99" width="277.99" height="198.5" as="geometry" />
        </mxCell>
        <mxCell id="VTR4LVU4mm7xho-qgtD3-46" value="" style="edgeStyle=orthogonalEdgeStyle;rounded=0;orthogonalLoop=1;jettySize=auto;html=1;" parent="1" source="VTR4LVU4mm7xho-qgtD3-47" target="VTR4LVU4mm7xho-qgtD3-49" edge="1">
          <mxGeometry relative="1" as="geometry" />
        </mxCell>
        <mxCell id="VTR4LVU4mm7xho-qgtD3-47" value="when user select choice =3 list all vacant rooms.&amp;nbsp;" style="whiteSpace=wrap;html=1;rounded=0;" parent="1" vertex="1">
          <mxGeometry x="-279.19" y="311.75" width="120" height="56.25" as="geometry" />
        </mxCell>
        <mxCell id="VTR4LVU4mm7xho-qgtD3-48" value="" style="edgeStyle=orthogonalEdgeStyle;rounded=0;orthogonalLoop=1;jettySize=auto;html=1;" parent="1" source="VTR4LVU4mm7xho-qgtD3-49" target="VTR4LVU4mm7xho-qgtD3-51" edge="1">
          <mxGeometry relative="1" as="geometry" />
        </mxCell>
        <mxCell id="VTR4LVU4mm7xho-qgtD3-49" value="List all vacant rooms:" style="shape=parallelogram;perimeter=parallelogramPerimeter;whiteSpace=wrap;html=1;fixedSize=1;rounded=0;" parent="1" vertex="1">
          <mxGeometry x="-271.69" y="391.75" width="105" height="40" as="geometry" />
        </mxCell>
        <mxCell id="VTR4LVU4mm7xho-qgtD3-71" value="" style="edgeStyle=orthogonalEdgeStyle;rounded=0;orthogonalLoop=1;jettySize=auto;html=1;" parent="1" source="VTR4LVU4mm7xho-qgtD3-51" target="VTR4LVU4mm7xho-qgtD3-70" edge="1">
          <mxGeometry relative="1" as="geometry" />
        </mxCell>
        <mxCell id="VTR4LVU4mm7xho-qgtD3-51" value="Enter room id:&lt;br style=&quot;border-color: var(--border-color);&quot;&gt;Enter customer name :" style="shape=parallelogram;perimeter=parallelogramPerimeter;whiteSpace=wrap;html=1;fixedSize=1;rounded=0;" parent="1" vertex="1">
          <mxGeometry x="-294.19" y="461.75" width="150" height="62.5" as="geometry" />
        </mxCell>
        <mxCell id="VTR4LVU4mm7xho-qgtD3-59" value="" style="edgeStyle=orthogonalEdgeStyle;rounded=0;orthogonalLoop=1;jettySize=auto;html=1;exitX=0.5;exitY=1;exitDx=0;exitDy=0;" parent="1" source="VTR4LVU4mm7xho-qgtD3-52" target="VTR4LVU4mm7xho-qgtD3-58" edge="1">
          <mxGeometry relative="1" as="geometry">
            <mxPoint x="93" y="730.25" as="targetPoint" />
          </mxGeometry>
        </mxCell>
        <mxCell id="VTR4LVU4mm7xho-qgtD3-62" value="YES" style="edgeLabel;html=1;align=center;verticalAlign=middle;resizable=0;points=[];" parent="VTR4LVU4mm7xho-qgtD3-59" vertex="1" connectable="0">
          <mxGeometry x="-0.1537" y="1" relative="1" as="geometry">
            <mxPoint x="1" as="offset" />
          </mxGeometry>
        </mxCell>
        <mxCell id="VTR4LVU4mm7xho-qgtD3-66" value="" style="edgeStyle=orthogonalEdgeStyle;rounded=0;orthogonalLoop=1;jettySize=auto;html=1;entryX=0.5;entryY=0;entryDx=0;entryDy=0;exitX=0;exitY=0.5;exitDx=0;exitDy=0;" parent="1" source="VTR4LVU4mm7xho-qgtD3-52" target="VTR4LVU4mm7xho-qgtD3-65" edge="1">
          <mxGeometry relative="1" as="geometry" />
        </mxCell>
        <mxCell id="VTR4LVU4mm7xho-qgtD3-67" value="NO" style="edgeLabel;html=1;align=center;verticalAlign=middle;resizable=0;points=[];" parent="VTR4LVU4mm7xho-qgtD3-66" vertex="1" connectable="0">
          <mxGeometry x="-0.2017" y="-2" relative="1" as="geometry">
            <mxPoint x="1" as="offset" />
          </mxGeometry>
        </mxCell>
        <mxCell id="VTR4LVU4mm7xho-qgtD3-52" value="If R[i] =0, and ResrROOM_ID[i] =0,&lt;br style=&quot;border-color: var(--border-color);&quot;&gt;and&amp;nbsp;&lt;br style=&quot;border-color: var(--border-color);&quot;&gt;CUST_NAME[i]=&quot;&quot; .&amp;nbsp;&lt;br&gt;ELSE Room[i] =0, and ROOM_ID[i] =1,&lt;br style=&quot;border-color: var(--border-color);&quot;&gt;and&amp;nbsp;&lt;br style=&quot;border-color: var(--border-color);&quot;&gt;CUST_NAME[i]=&quot;customer name&quot; .&amp;nbsp;&lt;br&gt;&amp;nbsp;&lt;br style=&quot;border-color: var(--border-color);&quot;&gt;&amp;nbsp;" style="rhombus;whiteSpace=wrap;html=1;rounded=0;fillColor=#f5f5f5;strokeColor=#666666;gradientColor=#b3b3b3;" parent="1" vertex="1">
          <mxGeometry x="-367" y="680.25" width="295.62" height="200" as="geometry" />
        </mxCell>
        <mxCell id="Qqf6VQFHV5nOcDdPNc0d-32" style="edgeStyle=orthogonalEdgeStyle;rounded=0;orthogonalLoop=1;jettySize=auto;html=1;exitX=0.5;exitY=1;exitDx=0;exitDy=0;entryX=0;entryY=0.5;entryDx=0;entryDy=0;" edge="1" parent="1" source="VTR4LVU4mm7xho-qgtD3-58" target="VTR4LVU4mm7xho-qgtD3-11">
          <mxGeometry relative="1" as="geometry">
            <Array as="points">
              <mxPoint x="-202" y="980" />
              <mxPoint x="-40" y="980" />
              <mxPoint x="-40" y="260" />
            </Array>
          </mxGeometry>
        </mxCell>
        <mxCell id="VTR4LVU4mm7xho-qgtD3-58" value="&quot;Room is vacant for Reservation&quot;" style="shape=parallelogram;perimeter=parallelogramPerimeter;whiteSpace=wrap;html=1;fixedSize=1;rounded=0;" parent="1" vertex="1">
          <mxGeometry x="-289.19" y="922.75" width="140" height="42.5" as="geometry" />
        </mxCell>
        <mxCell id="Qqf6VQFHV5nOcDdPNc0d-22" style="edgeStyle=orthogonalEdgeStyle;rounded=0;orthogonalLoop=1;jettySize=auto;html=1;exitX=0.5;exitY=1;exitDx=0;exitDy=0;entryX=0.5;entryY=0;entryDx=0;entryDy=0;" edge="1" parent="1" source="VTR4LVU4mm7xho-qgtD3-65" target="VTR4LVU4mm7xho-qgtD3-180">
          <mxGeometry relative="1" as="geometry">
            <Array as="points">
              <mxPoint x="-374" y="1030" />
              <mxPoint x="125" y="1030" />
            </Array>
          </mxGeometry>
        </mxCell>
        <mxCell id="VTR4LVU4mm7xho-qgtD3-65" value="&quot;Room is already&amp;nbsp; Reserved.&quot;" style="shape=parallelogram;perimeter=parallelogramPerimeter;whiteSpace=wrap;html=1;fixedSize=1;rounded=0;" parent="1" vertex="1">
          <mxGeometry x="-430" y="905.25" width="112.81" height="42.5" as="geometry" />
        </mxCell>
        <mxCell id="VTR4LVU4mm7xho-qgtD3-72" value="" style="edgeStyle=orthogonalEdgeStyle;rounded=0;orthogonalLoop=1;jettySize=auto;html=1;" parent="1" source="VTR4LVU4mm7xho-qgtD3-70" target="VTR4LVU4mm7xho-qgtD3-52" edge="1">
          <mxGeometry relative="1" as="geometry" />
        </mxCell>
        <mxCell id="VTR4LVU4mm7xho-qgtD3-70" value="&lt;span style=&quot;color: rgb(0, 0, 0); font-family: Helvetica; font-size: 12px; font-style: normal; font-variant-ligatures: normal; font-variant-caps: normal; font-weight: 400; letter-spacing: normal; orphans: 2; text-align: center; text-indent: 0px; text-transform: none; widows: 2; word-spacing: 0px; -webkit-text-stroke-width: 0px; background-color: rgb(251, 251, 251); text-decoration-thickness: initial; text-decoration-style: initial; text-decoration-color: initial; float: none; display: inline !important;&quot;&gt;Set ARoomID into ReservationsROOM_ID[i].&lt;/span&gt;&lt;br style=&quot;border-color: var(--border-color); color: rgb(0, 0, 0); font-family: Helvetica; font-size: 12px; font-style: normal; font-variant-ligatures: normal; font-variant-caps: normal; font-weight: 400; letter-spacing: normal; orphans: 2; text-align: center; text-indent: 0px; text-transform: none; widows: 2; word-spacing: 0px; -webkit-text-stroke-width: 0px; background-color: rgb(251, 251, 251); text-decoration-thickness: initial; text-decoration-style: initial; text-decoration-color: initial;&quot;&gt;&lt;span style=&quot;color: rgb(0, 0, 0); font-family: Helvetica; font-size: 12px; font-style: normal; font-variant-ligatures: normal; font-variant-caps: normal; font-weight: 400; letter-spacing: normal; orphans: 2; text-align: center; text-indent: 0px; text-transform: none; widows: 2; word-spacing: 0px; -webkit-text-stroke-width: 0px; background-color: rgb(251, 251, 251); text-decoration-thickness: initial; text-decoration-style: initial; text-decoration-color: initial; float: none; display: inline !important;&quot;&gt;Set AName into ReservationsCUST_NAME[i].&lt;/span&gt;" style="whiteSpace=wrap;html=1;rounded=0;" parent="1" vertex="1">
          <mxGeometry x="-307.94000000000005" y="569.25" width="177.5" height="60" as="geometry" />
        </mxCell>
        <mxCell id="VTR4LVU4mm7xho-qgtD3-82" value="" style="edgeStyle=orthogonalEdgeStyle;rounded=0;orthogonalLoop=1;jettySize=auto;html=1;" parent="1" source="VTR4LVU4mm7xho-qgtD3-74" target="VTR4LVU4mm7xho-qgtD3-81" edge="1">
          <mxGeometry relative="1" as="geometry" />
        </mxCell>
        <mxCell id="VTR4LVU4mm7xho-qgtD3-74" value="when user select choice =4 list all reserved rooms.&amp;nbsp;" style="whiteSpace=wrap;html=1;rounded=0;" parent="1" vertex="1">
          <mxGeometry x="147.75" y="308.38" width="120" height="56.25" as="geometry" />
        </mxCell>
        <mxCell id="VTR4LVU4mm7xho-qgtD3-130" value="" style="edgeStyle=orthogonalEdgeStyle;rounded=0;orthogonalLoop=1;jettySize=auto;html=1;" parent="1" source="VTR4LVU4mm7xho-qgtD3-76" target="VTR4LVU4mm7xho-qgtD3-128" edge="1">
          <mxGeometry relative="1" as="geometry" />
        </mxCell>
        <mxCell id="VTR4LVU4mm7xho-qgtD3-76" value="Enter Room ID:" style="shape=parallelogram;perimeter=parallelogramPerimeter;whiteSpace=wrap;html=1;fixedSize=1;rounded=0;" parent="1" vertex="1">
          <mxGeometry x="149.75" y="459" width="115" height="32.5" as="geometry" />
        </mxCell>
        <mxCell id="VTR4LVU4mm7xho-qgtD3-85" value="" style="edgeStyle=orthogonalEdgeStyle;rounded=0;orthogonalLoop=1;jettySize=auto;html=1;" parent="1" source="VTR4LVU4mm7xho-qgtD3-81" target="VTR4LVU4mm7xho-qgtD3-76" edge="1">
          <mxGeometry relative="1" as="geometry" />
        </mxCell>
        <mxCell id="VTR4LVU4mm7xho-qgtD3-81" value="List all Reserved Rooms:" style="shape=parallelogram;perimeter=parallelogramPerimeter;whiteSpace=wrap;html=1;fixedSize=1;rounded=0;" parent="1" vertex="1">
          <mxGeometry x="143.05999999999995" y="396.5" width="129.38" height="32.5" as="geometry" />
        </mxCell>
        <mxCell id="VTR4LVU4mm7xho-qgtD3-105" value="" style="edgeStyle=orthogonalEdgeStyle;rounded=0;orthogonalLoop=1;jettySize=auto;html=1;" parent="1" source="VTR4LVU4mm7xho-qgtD3-101" target="VTR4LVU4mm7xho-qgtD3-104" edge="1">
          <mxGeometry relative="1" as="geometry" />
        </mxCell>
        <mxCell id="VTR4LVU4mm7xho-qgtD3-106" value="YES" style="edgeLabel;html=1;align=center;verticalAlign=middle;resizable=0;points=[];" parent="VTR4LVU4mm7xho-qgtD3-105" vertex="1" connectable="0">
          <mxGeometry x="-0.0584" y="2" relative="1" as="geometry">
            <mxPoint as="offset" />
          </mxGeometry>
        </mxCell>
        <mxCell id="VTR4LVU4mm7xho-qgtD3-108" value="" style="edgeStyle=orthogonalEdgeStyle;rounded=0;orthogonalLoop=1;jettySize=auto;html=1;exitX=0;exitY=0.5;exitDx=0;exitDy=0;" parent="1" source="VTR4LVU4mm7xho-qgtD3-101" target="VTR4LVU4mm7xho-qgtD3-107" edge="1">
          <mxGeometry relative="1" as="geometry">
            <mxPoint x="352.1999999999998" y="830.0319819228807" as="sourcePoint" />
          </mxGeometry>
        </mxCell>
        <mxCell id="VTR4LVU4mm7xho-qgtD3-109" value="NO" style="edgeLabel;html=1;align=center;verticalAlign=middle;resizable=0;points=[];" parent="VTR4LVU4mm7xho-qgtD3-108" vertex="1" connectable="0">
          <mxGeometry x="0.0229" y="1" relative="1" as="geometry">
            <mxPoint as="offset" />
          </mxGeometry>
        </mxCell>
        <mxCell id="VTR4LVU4mm7xho-qgtD3-101" value="If R[i] =0, and ResrROOM_ID[i] =1,&lt;br style=&quot;border-color: var(--border-color);&quot;&gt;and&amp;nbsp;&lt;br style=&quot;border-color: var(--border-color);&quot;&gt;CUST_NAME[i]=&quot;&quot;customer name&quot;.&lt;br&gt;&lt;br&gt;ELSE Room[i] =0, and ROOM_ID[i] =0,&lt;br style=&quot;border-color: var(--border-color);&quot;&gt;and&amp;nbsp;&lt;br style=&quot;border-color: var(--border-color);&quot;&gt;CUST_NAME[i]=&quot;&quot; .&amp;nbsp;&lt;br&gt;&amp;nbsp;&lt;br style=&quot;border-color: var(--border-color);&quot;&gt;&amp;nbsp;" style="rhombus;whiteSpace=wrap;html=1;rounded=0;fillColor=#f5f5f5;strokeColor=#666666;gradientColor=#b3b3b3;" parent="1" vertex="1">
          <mxGeometry x="70" y="622.5" width="274.38" height="183.75" as="geometry" />
        </mxCell>
        <mxCell id="Qqf6VQFHV5nOcDdPNc0d-5" style="edgeStyle=orthogonalEdgeStyle;rounded=0;orthogonalLoop=1;jettySize=auto;html=1;entryX=0;entryY=0.5;entryDx=0;entryDy=0;" edge="1" parent="1" source="VTR4LVU4mm7xho-qgtD3-104" target="VTR4LVU4mm7xho-qgtD3-12">
          <mxGeometry relative="1" as="geometry">
            <Array as="points">
              <mxPoint x="350" y="866" />
              <mxPoint x="350" y="260" />
            </Array>
          </mxGeometry>
        </mxCell>
        <mxCell id="VTR4LVU4mm7xho-qgtD3-104" value="&quot;Reservation Confirmed.&quot;" style="shape=parallelogram;perimeter=parallelogramPerimeter;whiteSpace=wrap;html=1;fixedSize=1;rounded=0;" parent="1" vertex="1">
          <mxGeometry x="147.19" y="850" width="120" height="31.25" as="geometry" />
        </mxCell>
        <mxCell id="Qqf6VQFHV5nOcDdPNc0d-24" style="edgeStyle=orthogonalEdgeStyle;rounded=0;orthogonalLoop=1;jettySize=auto;html=1;exitX=0.5;exitY=1;exitDx=0;exitDy=0;entryX=0.5;entryY=0;entryDx=0;entryDy=0;" edge="1" parent="1" source="VTR4LVU4mm7xho-qgtD3-107" target="VTR4LVU4mm7xho-qgtD3-180">
          <mxGeometry relative="1" as="geometry">
            <Array as="points">
              <mxPoint x="50" y="1030" />
              <mxPoint x="125" y="1030" />
            </Array>
          </mxGeometry>
        </mxCell>
        <mxCell id="VTR4LVU4mm7xho-qgtD3-107" value="Error message:&lt;br&gt;&quot;there is no previous reservation for this room.&quot;" style="shape=parallelogram;perimeter=parallelogramPerimeter;whiteSpace=wrap;html=1;fixedSize=1;rounded=0;" parent="1" vertex="1">
          <mxGeometry x="-30" y="847.5" width="160" height="50" as="geometry" />
        </mxCell>
        <mxCell id="VTR4LVU4mm7xho-qgtD3-124" value="" style="edgeStyle=orthogonalEdgeStyle;rounded=0;orthogonalLoop=1;jettySize=auto;html=1;" parent="1" source="VTR4LVU4mm7xho-qgtD3-117" target="VTR4LVU4mm7xho-qgtD3-123" edge="1">
          <mxGeometry relative="1" as="geometry" />
        </mxCell>
        <mxCell id="VTR4LVU4mm7xho-qgtD3-117" value="when user select choice =5 list all Confirmed rooms.&amp;nbsp;" style="whiteSpace=wrap;html=1;rounded=0;" parent="1" vertex="1">
          <mxGeometry x="465" y="308.38" width="120" height="56.25" as="geometry" />
        </mxCell>
        <mxCell id="VTR4LVU4mm7xho-qgtD3-134" value="" style="edgeStyle=orthogonalEdgeStyle;rounded=0;orthogonalLoop=1;jettySize=auto;html=1;" parent="1" source="VTR4LVU4mm7xho-qgtD3-118" target="VTR4LVU4mm7xho-qgtD3-133" edge="1">
          <mxGeometry relative="1" as="geometry" />
        </mxCell>
        <mxCell id="VTR4LVU4mm7xho-qgtD3-118" value="Enter Room ID:" style="shape=parallelogram;perimeter=parallelogramPerimeter;whiteSpace=wrap;html=1;fixedSize=1;rounded=0;" parent="1" vertex="1">
          <mxGeometry x="467.5" y="465.87" width="115" height="32.5" as="geometry" />
        </mxCell>
        <mxCell id="VTR4LVU4mm7xho-qgtD3-125" value="" style="edgeStyle=orthogonalEdgeStyle;rounded=0;orthogonalLoop=1;jettySize=auto;html=1;" parent="1" source="VTR4LVU4mm7xho-qgtD3-123" target="VTR4LVU4mm7xho-qgtD3-118" edge="1">
          <mxGeometry relative="1" as="geometry" />
        </mxCell>
        <mxCell id="VTR4LVU4mm7xho-qgtD3-123" value="List all Reserved Rooms:" style="shape=parallelogram;perimeter=parallelogramPerimeter;whiteSpace=wrap;html=1;fixedSize=1;rounded=0;" parent="1" vertex="1">
          <mxGeometry x="460.3100000000002" y="398.37" width="129.38" height="32.5" as="geometry" />
        </mxCell>
        <mxCell id="VTR4LVU4mm7xho-qgtD3-137" value="" style="edgeStyle=orthogonalEdgeStyle;rounded=0;orthogonalLoop=1;jettySize=auto;html=1;" parent="1" source="VTR4LVU4mm7xho-qgtD3-126" target="VTR4LVU4mm7xho-qgtD3-136" edge="1">
          <mxGeometry relative="1" as="geometry" />
        </mxCell>
        <mxCell id="VTR4LVU4mm7xho-qgtD3-139" value="YES" style="edgeLabel;html=1;align=center;verticalAlign=middle;resizable=0;points=[];" parent="VTR4LVU4mm7xho-qgtD3-137" vertex="1" connectable="0">
          <mxGeometry x="-0.3701" relative="1" as="geometry">
            <mxPoint as="offset" />
          </mxGeometry>
        </mxCell>
        <mxCell id="VTR4LVU4mm7xho-qgtD3-144" value="" style="edgeStyle=orthogonalEdgeStyle;rounded=0;orthogonalLoop=1;jettySize=auto;html=1;exitX=0;exitY=0.5;exitDx=0;exitDy=0;" parent="1" source="VTR4LVU4mm7xho-qgtD3-126" target="VTR4LVU4mm7xho-qgtD3-143" edge="1">
          <mxGeometry relative="1" as="geometry">
            <Array as="points">
              <mxPoint x="370" y="893" />
            </Array>
          </mxGeometry>
        </mxCell>
        <mxCell id="VTR4LVU4mm7xho-qgtD3-169" value="NO" style="edgeLabel;html=1;align=center;verticalAlign=middle;resizable=0;points=[];" parent="VTR4LVU4mm7xho-qgtD3-144" vertex="1" connectable="0">
          <mxGeometry x="-0.1354" y="-1" relative="1" as="geometry">
            <mxPoint as="offset" />
          </mxGeometry>
        </mxCell>
        <mxCell id="VTR4LVU4mm7xho-qgtD3-126" value="If R[i] =1, and resROOM_ID[i] =1,&lt;br style=&quot;border-color: var(--border-color);&quot;&gt;and&amp;nbsp;&lt;br style=&quot;border-color: var(--border-color);&quot;&gt;CUST_NAME[i]=&quot;&quot;customer name&quot;.&lt;br&gt;&lt;br&gt;ELSE Room[i] =0, and ROOM_ID[i] =0,&lt;br style=&quot;border-color: var(--border-color);&quot;&gt;and&amp;nbsp;&lt;br style=&quot;border-color: var(--border-color);&quot;&gt;CUST_NAME[i]=&quot;&quot; .&amp;nbsp;&lt;br&gt;&amp;nbsp;&lt;br style=&quot;border-color: var(--border-color);&quot;&gt;&amp;nbsp;" style="rhombus;whiteSpace=wrap;html=1;rounded=0;fillColor=#f5f5f5;strokeColor=#666666;gradientColor=#b3b3b3;" parent="1" vertex="1">
          <mxGeometry x="370.32" y="619" width="309.37" height="145" as="geometry" />
        </mxCell>
        <mxCell id="Qqf6VQFHV5nOcDdPNc0d-36" value="" style="edgeStyle=orthogonalEdgeStyle;rounded=0;orthogonalLoop=1;jettySize=auto;html=1;" edge="1" parent="1" source="VTR4LVU4mm7xho-qgtD3-128" target="VTR4LVU4mm7xho-qgtD3-101">
          <mxGeometry relative="1" as="geometry" />
        </mxCell>
        <mxCell id="VTR4LVU4mm7xho-qgtD3-128" value="Set ARoomID into ReservationsROOM_ID[i].&lt;br&gt;Set Room[i] =1." style="whiteSpace=wrap;html=1;rounded=0;" parent="1" vertex="1">
          <mxGeometry x="133.74999999999983" y="519" width="146.88" height="47.5" as="geometry" />
        </mxCell>
        <mxCell id="VTR4LVU4mm7xho-qgtD3-135" value="" style="edgeStyle=orthogonalEdgeStyle;rounded=0;orthogonalLoop=1;jettySize=auto;html=1;" parent="1" source="VTR4LVU4mm7xho-qgtD3-133" target="VTR4LVU4mm7xho-qgtD3-126" edge="1">
          <mxGeometry relative="1" as="geometry" />
        </mxCell>
        <mxCell id="VTR4LVU4mm7xho-qgtD3-133" value="Set RoomCheck_IN_OUT[i] =1." style="whiteSpace=wrap;html=1;rounded=0;" parent="1" vertex="1">
          <mxGeometry x="458.75" y="538.37" width="132.5" height="50" as="geometry" />
        </mxCell>
        <mxCell id="Qqf6VQFHV5nOcDdPNc0d-7" style="edgeStyle=orthogonalEdgeStyle;rounded=0;orthogonalLoop=1;jettySize=auto;html=1;entryX=0;entryY=0.5;entryDx=0;entryDy=0;" edge="1" parent="1" source="VTR4LVU4mm7xho-qgtD3-136" target="VTR4LVU4mm7xho-qgtD3-13">
          <mxGeometry relative="1" as="geometry">
            <Array as="points">
              <mxPoint x="690" y="820" />
              <mxPoint x="690" y="260" />
            </Array>
          </mxGeometry>
        </mxCell>
        <mxCell id="VTR4LVU4mm7xho-qgtD3-136" value="&quot;Room Checked in successfully&quot;" style="shape=parallelogram;perimeter=parallelogramPerimeter;whiteSpace=wrap;html=1;fixedSize=1;rounded=0;" parent="1" vertex="1">
          <mxGeometry x="455.01" y="810" width="140" height="40" as="geometry" />
        </mxCell>
        <mxCell id="Qqf6VQFHV5nOcDdPNc0d-25" style="edgeStyle=orthogonalEdgeStyle;rounded=0;orthogonalLoop=1;jettySize=auto;html=1;exitX=0.5;exitY=1;exitDx=0;exitDy=0;" edge="1" parent="1" source="VTR4LVU4mm7xho-qgtD3-143" target="VTR4LVU4mm7xho-qgtD3-180">
          <mxGeometry relative="1" as="geometry">
            <Array as="points">
              <mxPoint x="387" y="1030" />
              <mxPoint x="125" y="1030" />
            </Array>
          </mxGeometry>
        </mxCell>
        <mxCell id="VTR4LVU4mm7xho-qgtD3-143" value="&lt;meta charset=&quot;utf-8&quot;&gt;&lt;span style=&quot;color: rgb(0, 0, 0); font-family: Helvetica; font-size: 12px; font-style: normal; font-variant-ligatures: normal; font-variant-caps: normal; font-weight: 400; letter-spacing: normal; orphans: 2; text-align: center; text-indent: 0px; text-transform: none; widows: 2; word-spacing: 0px; -webkit-text-stroke-width: 0px; background-color: rgb(251, 251, 251); text-decoration-thickness: initial; text-decoration-style: initial; text-decoration-color: initial; float: none; display: inline !important;&quot;&gt;Error message:&lt;/span&gt;&lt;br style=&quot;border-color: var(--border-color); color: rgb(0, 0, 0); font-family: Helvetica; font-size: 12px; font-style: normal; font-variant-ligatures: normal; font-variant-caps: normal; font-weight: 400; letter-spacing: normal; orphans: 2; text-align: center; text-indent: 0px; text-transform: none; widows: 2; word-spacing: 0px; -webkit-text-stroke-width: 0px; background-color: rgb(251, 251, 251); text-decoration-thickness: initial; text-decoration-style: initial; text-decoration-color: initial;&quot;&gt;&lt;span style=&quot;color: rgb(0, 0, 0); font-family: Helvetica; font-size: 12px; font-style: normal; font-variant-ligatures: normal; font-variant-caps: normal; font-weight: 400; letter-spacing: normal; orphans: 2; text-align: center; text-indent: 0px; text-transform: none; widows: 2; word-spacing: 0px; -webkit-text-stroke-width: 0px; background-color: rgb(251, 251, 251); text-decoration-thickness: initial; text-decoration-style: initial; text-decoration-color: initial; float: none; display: inline !important;&quot;&gt;&quot;there is no previous reservation for this room.&quot;&lt;/span&gt;" style="shape=parallelogram;perimeter=parallelogramPerimeter;whiteSpace=wrap;html=1;fixedSize=1;" parent="1" vertex="1">
          <mxGeometry x="293" y="892.5" width="187" height="45" as="geometry" />
        </mxCell>
        <mxCell id="VTR4LVU4mm7xho-qgtD3-152" value="" style="edgeStyle=orthogonalEdgeStyle;rounded=0;orthogonalLoop=1;jettySize=auto;html=1;" parent="1" source="VTR4LVU4mm7xho-qgtD3-147" target="VTR4LVU4mm7xho-qgtD3-148" edge="1">
          <mxGeometry relative="1" as="geometry" />
        </mxCell>
        <mxCell id="VTR4LVU4mm7xho-qgtD3-147" value="list of all checked in Rooms:" style="shape=parallelogram;perimeter=parallelogramPerimeter;whiteSpace=wrap;html=1;fixedSize=1;rounded=0;" parent="1" vertex="1">
          <mxGeometry x="762.5" y="314.63" width="140" height="50" as="geometry" />
        </mxCell>
        <mxCell id="VTR4LVU4mm7xho-qgtD3-153" value="" style="edgeStyle=orthogonalEdgeStyle;rounded=0;orthogonalLoop=1;jettySize=auto;html=1;" parent="1" source="VTR4LVU4mm7xho-qgtD3-148" target="VTR4LVU4mm7xho-qgtD3-149" edge="1">
          <mxGeometry relative="1" as="geometry" />
        </mxCell>
        <mxCell id="VTR4LVU4mm7xho-qgtD3-148" value="Enter Room ID:" style="shape=parallelogram;perimeter=parallelogramPerimeter;whiteSpace=wrap;html=1;fixedSize=1;rounded=0;" parent="1" vertex="1">
          <mxGeometry x="777.5" y="401.5" width="110" height="35" as="geometry" />
        </mxCell>
        <mxCell id="Qqf6VQFHV5nOcDdPNc0d-37" value="" style="edgeStyle=orthogonalEdgeStyle;rounded=0;orthogonalLoop=1;jettySize=auto;html=1;" edge="1" parent="1" source="VTR4LVU4mm7xho-qgtD3-149" target="VTR4LVU4mm7xho-qgtD3-154">
          <mxGeometry relative="1" as="geometry" />
        </mxCell>
        <mxCell id="VTR4LVU4mm7xho-qgtD3-149" value="Set Room[i] =0.&lt;br&gt;Set RoomCheck_IN_OUT[i] =0.&lt;br&gt;Set Reservations_ID[i] =0.&lt;br&gt;Set ReservationsCUST_NAME[i] = &quot; &quot;." style="whiteSpace=wrap;html=1;rounded=0;" parent="1" vertex="1">
          <mxGeometry x="720" y="465.25" width="225" height="90" as="geometry" />
        </mxCell>
        <mxCell id="Qqf6VQFHV5nOcDdPNc0d-38" value="" style="edgeStyle=orthogonalEdgeStyle;rounded=0;orthogonalLoop=1;jettySize=auto;html=1;" edge="1" parent="1" source="VTR4LVU4mm7xho-qgtD3-154" target="VTR4LVU4mm7xho-qgtD3-163">
          <mxGeometry relative="1" as="geometry" />
        </mxCell>
        <mxCell id="Qqf6VQFHV5nOcDdPNc0d-60" value="NO" style="edgeLabel;html=1;align=center;verticalAlign=middle;resizable=0;points=[];" vertex="1" connectable="0" parent="Qqf6VQFHV5nOcDdPNc0d-38">
          <mxGeometry x="-0.3581" y="-5" relative="1" as="geometry">
            <mxPoint as="offset" />
          </mxGeometry>
        </mxCell>
        <mxCell id="Qqf6VQFHV5nOcDdPNc0d-62" style="edgeStyle=orthogonalEdgeStyle;rounded=0;orthogonalLoop=1;jettySize=auto;html=1;exitX=1;exitY=0.5;exitDx=0;exitDy=0;" edge="1" parent="1" source="VTR4LVU4mm7xho-qgtD3-154">
          <mxGeometry relative="1" as="geometry">
            <mxPoint x="980" y="750" as="targetPoint" />
          </mxGeometry>
        </mxCell>
        <mxCell id="Qqf6VQFHV5nOcDdPNc0d-63" value="YES" style="edgeLabel;html=1;align=center;verticalAlign=middle;resizable=0;points=[];" vertex="1" connectable="0" parent="Qqf6VQFHV5nOcDdPNc0d-62">
          <mxGeometry x="-0.0398" y="-3" relative="1" as="geometry">
            <mxPoint as="offset" />
          </mxGeometry>
        </mxCell>
        <mxCell id="VTR4LVU4mm7xho-qgtD3-154" value="If R[i] =1, and resROOM_ID[i] =1,&lt;br style=&quot;border-color: var(--border-color);&quot;&gt;and&amp;nbsp;&lt;br style=&quot;border-color: var(--border-color);&quot;&gt;CUST_NAME[i]=&quot;&quot;customer name&quot;.&lt;br&gt;&lt;br&gt;ELSE Room[i] =0, and ROOM_ID[i] =0,&lt;br style=&quot;border-color: var(--border-color);&quot;&gt;and&amp;nbsp;&lt;br style=&quot;border-color: var(--border-color);&quot;&gt;CUST_NAME[i]=&quot;&quot; .&amp;nbsp;&lt;br&gt;&amp;nbsp;&lt;br style=&quot;border-color: var(--border-color);&quot;&gt;&amp;nbsp;" style="rhombus;whiteSpace=wrap;html=1;rounded=0;fillColor=#f5f5f5;strokeColor=#666666;gradientColor=#b3b3b3;" parent="1" vertex="1">
          <mxGeometry x="698.88" y="586.75" width="267.25" height="190" as="geometry" />
        </mxCell>
        <mxCell id="Qqf6VQFHV5nOcDdPNc0d-41" style="edgeStyle=orthogonalEdgeStyle;rounded=0;orthogonalLoop=1;jettySize=auto;html=1;entryX=0;entryY=0.5;entryDx=0;entryDy=0;exitX=0.562;exitY=0.034;exitDx=0;exitDy=0;exitPerimeter=0;" edge="1" parent="1" source="VTR4LVU4mm7xho-qgtD3-158" target="VTR4LVU4mm7xho-qgtD3-211">
          <mxGeometry relative="1" as="geometry">
            <mxPoint x="1051.5" y="658.1199999999999" as="sourcePoint" />
            <Array as="points">
              <mxPoint x="1054" y="252" />
              <mxPoint x="1052" y="252" />
              <mxPoint x="1052" y="257" />
            </Array>
          </mxGeometry>
        </mxCell>
        <mxCell id="VTR4LVU4mm7xho-qgtD3-158" value="&quot;Room Checked out successfully&quot;" style="shape=parallelogram;perimeter=parallelogramPerimeter;whiteSpace=wrap;html=1;fixedSize=1;rounded=0;" parent="1" vertex="1">
          <mxGeometry x="910" y="750.24" width="140" height="40" as="geometry" />
        </mxCell>
        <mxCell id="Qqf6VQFHV5nOcDdPNc0d-55" style="edgeStyle=orthogonalEdgeStyle;rounded=0;orthogonalLoop=1;jettySize=auto;html=1;exitX=0.5;exitY=1;exitDx=0;exitDy=0;" edge="1" parent="1" source="VTR4LVU4mm7xho-qgtD3-163" target="VTR4LVU4mm7xho-qgtD3-180">
          <mxGeometry relative="1" as="geometry">
            <Array as="points">
              <mxPoint x="764" y="1030" />
              <mxPoint x="125" y="1030" />
            </Array>
          </mxGeometry>
        </mxCell>
        <mxCell id="VTR4LVU4mm7xho-qgtD3-163" value="&lt;span style=&quot;color: rgb(0, 0, 0); font-family: Helvetica; font-size: 12px; font-style: normal; font-variant-ligatures: normal; font-variant-caps: normal; font-weight: 400; letter-spacing: normal; orphans: 2; text-align: center; text-indent: 0px; text-transform: none; widows: 2; word-spacing: 0px; -webkit-text-stroke-width: 0px; background-color: rgb(251, 251, 251); text-decoration-thickness: initial; text-decoration-style: initial; text-decoration-color: initial; float: none; display: inline !important;&quot;&gt;Error message:&lt;/span&gt;&lt;br style=&quot;border-color: var(--border-color); color: rgb(0, 0, 0); font-family: Helvetica; font-size: 12px; font-style: normal; font-variant-ligatures: normal; font-variant-caps: normal; font-weight: 400; letter-spacing: normal; orphans: 2; text-align: center; text-indent: 0px; text-transform: none; widows: 2; word-spacing: 0px; -webkit-text-stroke-width: 0px; background-color: rgb(251, 251, 251); text-decoration-thickness: initial; text-decoration-style: initial; text-decoration-color: initial;&quot;&gt;&lt;span style=&quot;color: rgb(0, 0, 0); font-family: Helvetica; font-size: 12px; font-style: normal; font-variant-ligatures: normal; font-variant-caps: normal; font-weight: 400; letter-spacing: normal; orphans: 2; text-align: center; text-indent: 0px; text-transform: none; widows: 2; word-spacing: 0px; -webkit-text-stroke-width: 0px; background-color: rgb(251, 251, 251); text-decoration-thickness: initial; text-decoration-style: initial; text-decoration-color: initial; float: none; display: inline !important;&quot;&gt;&quot;this Room is already vacant.&quot;&lt;/span&gt;" style="shape=parallelogram;perimeter=parallelogramPerimeter;whiteSpace=wrap;html=1;fixedSize=1;" parent="1" vertex="1">
          <mxGeometry x="670" y="847.5" width="187" height="45" as="geometry" />
        </mxCell>
        <mxCell id="VTR4LVU4mm7xho-qgtD3-180" value="&lt;b&gt;STOP-BEST-IN Hotel&amp;nbsp;&lt;/b&gt;" style="ellipse;whiteSpace=wrap;html=1;fillColor=#d5e8d4;strokeColor=#82b366;rounded=0;gradientColor=#97d077;" parent="1" vertex="1">
          <mxGeometry x="70" y="1110" width="110" height="50" as="geometry" />
        </mxCell>
        <mxCell id="VTR4LVU4mm7xho-qgtD3-193" value="" style="edgeStyle=orthogonalEdgeStyle;rounded=0;orthogonalLoop=1;jettySize=auto;html=1;" parent="1" source="VTR4LVU4mm7xho-qgtD3-191" edge="1">
          <mxGeometry relative="1" as="geometry">
            <mxPoint x="-610.0100000000002" y="676.2435702723121" as="targetPoint" />
          </mxGeometry>
        </mxCell>
        <mxCell id="VTR4LVU4mm7xho-qgtD3-191" value="for (i = 1; i &amp;lt;= 10; i++)" style="whiteSpace=wrap;html=1;rounded=0;" parent="1" vertex="1">
          <mxGeometry x="-672.51" y="586.75" width="125" height="35" as="geometry" />
        </mxCell>
        <mxCell id="Qqf6VQFHV5nOcDdPNc0d-64" value="" style="edgeStyle=orthogonalEdgeStyle;rounded=0;orthogonalLoop=1;jettySize=auto;html=1;" edge="1" parent="1" source="VTR4LVU4mm7xho-qgtD3-211" target="VTR4LVU4mm7xho-qgtD3-216">
          <mxGeometry relative="1" as="geometry" />
        </mxCell>
        <mxCell id="VTR4LVU4mm7xho-qgtD3-211" value="&lt;b&gt;Choice 6:&lt;br&gt;Payment&lt;br&gt;&lt;/b&gt;" style="whiteSpace=wrap;html=1;fillColor=#dae8fc;strokeColor=#6c8ebf;gradientColor=#7ea6e0;rounded=0;" parent="1" vertex="1">
          <mxGeometry x="1175" y="236.5" width="90" height="40" as="geometry" />
        </mxCell>
        <mxCell id="VTR4LVU4mm7xho-qgtD3-217" value="" style="edgeStyle=orthogonalEdgeStyle;rounded=0;orthogonalLoop=1;jettySize=auto;html=1;" parent="1" source="VTR4LVU4mm7xho-qgtD3-214" target="VTR4LVU4mm7xho-qgtD3-216" edge="1">
          <mxGeometry relative="1" as="geometry" />
        </mxCell>
        <mxCell id="VTR4LVU4mm7xho-qgtD3-214" value="list of all checked out Rooms:" style="shape=parallelogram;perimeter=parallelogramPerimeter;whiteSpace=wrap;html=1;fixedSize=1;rounded=0;" parent="1" vertex="1">
          <mxGeometry x="1137.5" y="301.26" width="145" height="50.01" as="geometry" />
        </mxCell>
        <mxCell id="VTR4LVU4mm7xho-qgtD3-223" value="" style="edgeStyle=orthogonalEdgeStyle;rounded=0;orthogonalLoop=1;jettySize=auto;html=1;" parent="1" source="VTR4LVU4mm7xho-qgtD3-216" target="VTR4LVU4mm7xho-qgtD3-222" edge="1">
          <mxGeometry relative="1" as="geometry" />
        </mxCell>
        <mxCell id="VTR4LVU4mm7xho-qgtD3-216" value="Enter Room ID:" style="shape=parallelogram;perimeter=parallelogramPerimeter;whiteSpace=wrap;html=1;fixedSize=1;rounded=0;" parent="1" vertex="1">
          <mxGeometry x="1155" y="380" width="110" height="35" as="geometry" />
        </mxCell>
        <mxCell id="VTR4LVU4mm7xho-qgtD3-239" value="" style="edgeStyle=orthogonalEdgeStyle;rounded=0;orthogonalLoop=1;jettySize=auto;html=1;exitX=0.5;exitY=1;exitDx=0;exitDy=0;" parent="1" source="VTR4LVU4mm7xho-qgtD3-220" target="VTR4LVU4mm7xho-qgtD3-238" edge="1">
          <mxGeometry relative="1" as="geometry">
            <mxPoint x="1195" y="904.75" as="sourcePoint" />
            <Array as="points">
              <mxPoint x="1210" y="930" />
              <mxPoint x="1210" y="930" />
            </Array>
          </mxGeometry>
        </mxCell>
        <mxCell id="VTR4LVU4mm7xho-qgtD3-262" value="NO" style="edgeLabel;html=1;align=center;verticalAlign=middle;resizable=0;points=[];" parent="VTR4LVU4mm7xho-qgtD3-239" vertex="1" connectable="0">
          <mxGeometry x="-0.084" y="1" relative="1" as="geometry">
            <mxPoint as="offset" />
          </mxGeometry>
        </mxCell>
        <mxCell id="Qqf6VQFHV5nOcDdPNc0d-67" value="" style="edgeStyle=orthogonalEdgeStyle;rounded=0;orthogonalLoop=1;jettySize=auto;html=1;" edge="1" parent="1" source="VTR4LVU4mm7xho-qgtD3-220" target="VTR4LVU4mm7xho-qgtD3-235">
          <mxGeometry relative="1" as="geometry" />
        </mxCell>
        <mxCell id="Qqf6VQFHV5nOcDdPNc0d-68" value="Yes" style="edgeLabel;html=1;align=center;verticalAlign=middle;resizable=0;points=[];" vertex="1" connectable="0" parent="Qqf6VQFHV5nOcDdPNc0d-67">
          <mxGeometry x="0.0614" y="1" relative="1" as="geometry">
            <mxPoint as="offset" />
          </mxGeometry>
        </mxCell>
        <mxCell id="VTR4LVU4mm7xho-qgtD3-220" value="If R[i] =0, and ReserROOM_ID[i] =0,&lt;br style=&quot;border-color: var(--border-color);&quot;&gt;and&amp;nbsp;&lt;br style=&quot;border-color: var(--border-color);&quot;&gt;CUST_NAME[i]=&quot;customer name&quot;.&lt;br&gt;&lt;br&gt;ELSE Room[i] =1, and ROOM_ID[i] =1,&lt;br style=&quot;border-color: var(--border-color);&quot;&gt;and&amp;nbsp;&lt;br style=&quot;border-color: var(--border-color);&quot;&gt;CUST_NAME[i]=&quot;customer name&quot;.&lt;br style=&quot;border-color: var(--border-color);&quot;&gt;&amp;nbsp;" style="rhombus;whiteSpace=wrap;html=1;rounded=0;fillColor=#f5f5f5;strokeColor=#666666;gradientColor=#b3b3b3;" parent="1" vertex="1">
          <mxGeometry x="1070" y="660" width="280" height="180" as="geometry" />
        </mxCell>
        <mxCell id="VTR4LVU4mm7xho-qgtD3-227" value="" style="edgeStyle=orthogonalEdgeStyle;rounded=0;orthogonalLoop=1;jettySize=auto;html=1;" parent="1" source="VTR4LVU4mm7xho-qgtD3-222" target="VTR4LVU4mm7xho-qgtD3-226" edge="1">
          <mxGeometry relative="1" as="geometry" />
        </mxCell>
        <mxCell id="VTR4LVU4mm7xho-qgtD3-222" value="&amp;nbsp; Enter the total number of nights stayed:" style="shape=parallelogram;perimeter=parallelogramPerimeter;whiteSpace=wrap;html=1;fixedSize=1;rounded=0;" parent="1" vertex="1">
          <mxGeometry x="1130" y="438.01" width="160" height="40" as="geometry" />
        </mxCell>
        <mxCell id="VTR4LVU4mm7xho-qgtD3-233" value="" style="edgeStyle=orthogonalEdgeStyle;rounded=0;orthogonalLoop=1;jettySize=auto;html=1;" parent="1" source="VTR4LVU4mm7xho-qgtD3-226" target="VTR4LVU4mm7xho-qgtD3-232" edge="1">
          <mxGeometry relative="1" as="geometry" />
        </mxCell>
        <mxCell id="VTR4LVU4mm7xho-qgtD3-226" value="Room price per night = 100$.&lt;br&gt;" style="whiteSpace=wrap;html=1;rounded=0;" parent="1" vertex="1">
          <mxGeometry x="1143.75" y="504.25" width="132.5" height="50" as="geometry" />
        </mxCell>
        <mxCell id="Qqf6VQFHV5nOcDdPNc0d-65" value="" style="edgeStyle=orthogonalEdgeStyle;rounded=0;orthogonalLoop=1;jettySize=auto;html=1;" edge="1" parent="1" source="VTR4LVU4mm7xho-qgtD3-232" target="VTR4LVU4mm7xho-qgtD3-220">
          <mxGeometry relative="1" as="geometry" />
        </mxCell>
        <mxCell id="VTR4LVU4mm7xho-qgtD3-232" value="Each extra night do the following:&amp;nbsp;&lt;br&gt;100 * number of extra stayed nights." style="rounded=0;whiteSpace=wrap;html=1;" parent="1" vertex="1">
          <mxGeometry x="1150" y="574.25" width="120" height="60" as="geometry" />
        </mxCell>
        <mxCell id="Qqf6VQFHV5nOcDdPNc0d-59" style="edgeStyle=orthogonalEdgeStyle;rounded=0;orthogonalLoop=1;jettySize=auto;html=1;exitX=0.5;exitY=0;exitDx=0;exitDy=0;entryX=1;entryY=0.25;entryDx=0;entryDy=0;" edge="1" parent="1" source="VTR4LVU4mm7xho-qgtD3-235" target="VTR4LVU4mm7xho-qgtD3-241">
          <mxGeometry relative="1" as="geometry">
            <Array as="points">
              <mxPoint x="1466" y="750" />
              <mxPoint x="1592" y="750" />
              <mxPoint x="1592" y="247" />
            </Array>
          </mxGeometry>
        </mxCell>
        <mxCell id="VTR4LVU4mm7xho-qgtD3-235" value="&amp;nbsp; &quot;Payment check is done&quot;" style="shape=parallelogram;perimeter=parallelogramPerimeter;whiteSpace=wrap;html=1;fixedSize=1;rounded=0;" parent="1" vertex="1">
          <mxGeometry x="1401.5" y="733.75" width="129" height="32.5" as="geometry" />
        </mxCell>
        <mxCell id="Qqf6VQFHV5nOcDdPNc0d-10" style="edgeStyle=orthogonalEdgeStyle;rounded=0;orthogonalLoop=1;jettySize=auto;html=1;entryX=0.5;entryY=0;entryDx=0;entryDy=0;" edge="1" parent="1" source="VTR4LVU4mm7xho-qgtD3-238" target="VTR4LVU4mm7xho-qgtD3-180">
          <mxGeometry relative="1" as="geometry">
            <mxPoint x="1733.5" y="1600" as="targetPoint" />
            <Array as="points">
              <mxPoint x="1234" y="1030" />
              <mxPoint x="125" y="1030" />
            </Array>
          </mxGeometry>
        </mxCell>
        <mxCell id="VTR4LVU4mm7xho-qgtD3-238" value="&lt;span style=&quot;color: rgb(0, 0, 0); font-family: Helvetica; font-size: 12px; font-style: normal; font-variant-ligatures: normal; font-variant-caps: normal; font-weight: 400; letter-spacing: normal; orphans: 2; text-align: center; text-indent: 0px; text-transform: none; widows: 2; word-spacing: 0px; -webkit-text-stroke-width: 0px; background-color: rgb(251, 251, 251); text-decoration-thickness: initial; text-decoration-style: initial; text-decoration-color: initial; float: none; display: inline !important;&quot;&gt;Error message:&lt;/span&gt;&lt;br style=&quot;border-color: var(--border-color); color: rgb(0, 0, 0); font-family: Helvetica; font-size: 12px; font-style: normal; font-variant-ligatures: normal; font-variant-caps: normal; font-weight: 400; letter-spacing: normal; orphans: 2; text-align: center; text-indent: 0px; text-transform: none; widows: 2; word-spacing: 0px; -webkit-text-stroke-width: 0px; background-color: rgb(251, 251, 251); text-decoration-thickness: initial; text-decoration-style: initial; text-decoration-color: initial;&quot;&gt;&lt;span style=&quot;color: rgb(0, 0, 0); font-family: Helvetica; font-size: 12px; font-style: normal; font-variant-ligatures: normal; font-variant-caps: normal; font-weight: 400; letter-spacing: normal; orphans: 2; text-align: center; text-indent: 0px; text-transform: none; widows: 2; word-spacing: 0px; -webkit-text-stroke-width: 0px; background-color: rgb(251, 251, 251); text-decoration-thickness: initial; text-decoration-style: initial; text-decoration-color: initial; float: none; display: inline !important;&quot;&gt;&quot;this room has not been checked out yet!.&quot;&lt;/span&gt;" style="shape=parallelogram;perimeter=parallelogramPerimeter;whiteSpace=wrap;html=1;fixedSize=1;" parent="1" vertex="1">
          <mxGeometry x="1103" y="886.76" width="187" height="45" as="geometry" />
        </mxCell>
        <mxCell id="VTR4LVU4mm7xho-qgtD3-240" value="" style="edgeStyle=orthogonalEdgeStyle;rounded=0;orthogonalLoop=1;jettySize=auto;html=1;" parent="1" source="VTR4LVU4mm7xho-qgtD3-241" target="VTR4LVU4mm7xho-qgtD3-242" edge="1">
          <mxGeometry relative="1" as="geometry" />
        </mxCell>
        <mxCell id="VTR4LVU4mm7xho-qgtD3-241" value="&lt;b&gt;Choice 7:&lt;br&gt;Quit&lt;/b&gt;" style="whiteSpace=wrap;html=1;fillColor=#dae8fc;strokeColor=#6c8ebf;gradientColor=#7ea6e0;rounded=0;" parent="1" vertex="1">
          <mxGeometry x="1451.5" y="236.5" width="90" height="40" as="geometry" />
        </mxCell>
        <mxCell id="VTR4LVU4mm7xho-qgtD3-242" value="Exit the Program." style="rounded=0;whiteSpace=wrap;html=1;" parent="1" vertex="1">
          <mxGeometry x="1436.5" y="309.38" width="120" height="60" as="geometry" />
        </mxCell>
        <mxCell id="Qqf6VQFHV5nOcDdPNc0d-58" value="" style="edgeStyle=segmentEdgeStyle;endArrow=classic;html=1;curved=0;rounded=0;endSize=8;startSize=8;entryX=0;entryY=0.5;entryDx=0;entryDy=0;" edge="1" parent="1" target="VTR4LVU4mm7xho-qgtD3-3">
          <mxGeometry width="50" height="50" relative="1" as="geometry">
            <mxPoint x="130" y="1080" as="sourcePoint" />
            <mxPoint x="-820" y="870" as="targetPoint" />
            <Array as="points">
              <mxPoint x="-810" y="1080" />
              <mxPoint x="-810" y="95" />
            </Array>
          </mxGeometry>
        </mxCell>
      </root>
    </mxGraphModel>
  </diagram>
</mxfile>
